# xmcd
#
# Track frame offsets: 
#        150
#        13730
#        26774
#        40352
#        53164
#        67363
#        80609
#        93697
#        109876
#        130802
#        145261
#        180634
#        191678
#        200417
#        209303
#        226564
#        252255
#        280487
#        294985
#
# Disc length: 4099 seconds
#
# Revision: 0
# Processed by: cddbd v1.5.2PL0 Copyright (c) Steve Scherf et al.
# Submitted via: ExactAudioCopyFreeDBPlugin 1.0
#
DISCID=22100113
DTITLE=Skip James - The Very Best Of
DYEAR=2012
DGENRE=Blues
TTITLE0=Devil Got My Woman
TTITLE1=I'm So Glad
TTITLE2=Jesus Is A Mighty Good Leader
TTITLE3=Hard Time Killin' Floor Blues
TTITLE4=Special Rider Blues
TTITLE5=Be Ready When He Comes
TTITLE6=If You Haven't Any Hay Get On Down The Road
TTITLE7=Illinois Blues
TTITLE8=I Don't Want A Woman To Stay Out All Night Long
TTITLE9=Cypress Grove Blues
TTITLE10=Black-Water Blues
TTITLE11=Look At The People
TTITLE12=Sorry For To Leave You
TTITLE13=Keep Your Lamp Trimmed And Burning
TTITLE14=Look Down The Road
TTITLE15=Lorenzo Blues
TTITLE16=Devil Got My Woman (In Concert)
TTITLE17=I'm So Glad (In Concert)
TTITLE18=Hard Time Killin' Floor Blues (In Concert)
EXTD=
EXTT0=
EXTT1=
EXTT2=
EXTT3=
EXTT4=
EXTT5=
EXTT6=
EXTT7=
EXTT8=
EXTT9=
EXTT10=
EXTT11=
EXTT12=
EXTT13=
EXTT14=
EXTT15=
EXTT16=
EXTT17=
EXTT18=
PLAYORDER=
